<svg id="Layer_1" data-name="Layer 1" xmlns="http://www.w3.org/2000/svg" xmlns:xlink="http://www.w3.org/1999/xlink" viewBox="0 0 154.81 125.12" width="406" height="306" class="illustration styles_illustrationTablet__1DWOa"><defs><linearGradient id="linear-gradient" x1="83.67" y1="199.61" x2="65.2" y2="-197.08" gradientUnits="userSpaceOnUse"><stop offset="0.01"></stop><stop offset="0.08" stop-opacity="0.69"></stop><stop offset="0.21" stop-opacity="0.32"></stop><stop offset="1" stop-opacity="0"></stop></linearGradient><linearGradient id="linear-gradient-2" x1="10.6" y1="88.64" x2="65.78" y2="66.49" xlink:href="#linear-gradient"></linearGradient><linearGradient id="linear-gradient-3" x1="97.91" y1="41.18" x2="105.05" y2="63.71" xlink:href="#linear-gradient"></linearGradient><linearGradient id="linear-gradient-4" x1="73.74" y1="72.63" x2="164.79" y2="36.09" xlink:href="#linear-gradient"></linearGradient><linearGradient id="linear-gradient-5" x1="55" y1="80.82" x2="127.7" y2="51.64" xlink:href="#linear-gradient"></linearGradient><linearGradient id="linear-gradient-6" x1="44.71" y1="98.51" x2="77.79" y2="85.23" xlink:href="#linear-gradient"></linearGradient></defs><title>8</title><path d="M42.14,131.88a43.46,43.46,0,0,1-8.94-5C22.49,119.17,15.61,106,16.62,92.79c.38-5,1.84-9.92,2.5-14.92,1.94-14.58-11.44-24.22-9.67-39,1.22-10.24,8.44-20.36,17.43-25.38,11.18-6.24,24.48-1.37,35.91,1.62a138.79,138.79,0,0,0,37.84,4.5c9.93-.19,20.2-1.4,29.55,2,14,5,25.23,13.79,30.36,28.18,3.55,9.94,4,20.74,3.22,31.27-.74,9.69-2.61,19.5-7.37,28-4.57,8.12-12.75,15.93-22.33,17.21-12.64,1.7-25.33-1.21-38.09,1.57-8.46,1.84-16.5,5.35-25,6.93A51.47,51.47,0,0,1,42.14,131.88Z" transform="translate(-9.29 -10.48)" fill="#68e1fd" opacity="0.18" style="isolation: isolate;"></path><rect x="25.22" y="9.51" width="103.89" height="100.72" fill="url(#linear-gradient)"></rect><path d="M80,48.61s1-4.59,3.93-5.43,3.7,2.71,3.7,2.71-4.92,1.75-4.16,3.58a15.46,15.46,0,0,1,.34,10.69c-1.63,4.51-.88,6.39-.88,6.39l-6,1a10.06,10.06,0,0,1,0-6.39c1.22-3,2.44-2.35,2.44-5.86S79.1,48.94,80,48.61Z" transform="translate(-9.29 -10.48)" fill="#fff"></path><rect x="28.47" y="54.94" width="21.97" height="52.44" fill="#68e1fd"></rect><rect x="28.21" y="54.94" width="6.01" height="50.86" fill="url(#linear-gradient-2)"></rect><rect x="54.1" y="81.16" width="21.97" height="26.22" fill="#68e1fd"></rect><rect x="79.16" y="34.09" width="21.97" height="73.29" fill="#68e1fd"></rect><path d="M94,46.93a.8.8,0,0,1,.36.23c.15.2.06.48,0,.72A5.17,5.17,0,0,0,94,49.7a1.77,1.77,0,0,0,.28,1,1.6,1.6,0,0,0,1.42.5c.52-.05,1-.23,1.54-.3,1.49-.21,2.93.48,4.33,1a.83.83,0,0,0,.51.09.82.82,0,0,0,.36-.23l.62-.55a1.34,1.34,0,0,0,.39-.5,1.63,1.63,0,0,0,0-.66,3.19,3.19,0,0,1,1-2.26c.59-.62,1.31-1.1,1.92-1.69A1.28,1.28,0,0,0,107,45c-.16-.63-1-.69-1.65-.63a75.18,75.18,0,0,1-9.49.3c-.59,0-4.32-.56-4.54-.19C90.86,45.23,93.49,46.74,94,46.93Z" transform="translate(-9.29 -10.48)" fill="url(#linear-gradient-3)"></path><rect x="104.4" y="12.16" width="21.97" height="95.21" fill="#68e1fd"></rect><rect x="104.76" y="12.16" width="6.01" height="93.63" fill="url(#linear-gradient-4)"></rect><rect x="79.16" y="34.04" width="6.01" height="71.75" fill="url(#linear-gradient-5)"></rect><rect x="54.07" y="81.3" width="6.01" height="24.49" fill="url(#linear-gradient-6)"></rect><path d="M80.11,90.06a1.39,1.39,0,0,1,.5,0,.44.44,0,0,1,.33.34.48.48,0,0,1-.22.41c-.13.1-.28.17-.41.27a2.28,2.28,0,0,1-.34.29,1.11,1.11,0,0,1-.72,0,9.16,9.16,0,0,0-3.26.1,1.16,1.16,0,0,1-.32,0A1,1,0,0,1,75,91a4.64,4.64,0,0,1-.37-2,.58.58,0,0,1,0-.23.5.5,0,0,1,.15-.14c1-.6,1.64.37,2.44.79A5.78,5.78,0,0,0,80.11,90.06Z" transform="translate(-9.29 -10.48)" fill="#ffbaa8"></path><path d="M76.61,90.77h.22a8.72,8.72,0,0,0,1.43-.24.58.58,0,0,0,.25-.12A.44.44,0,0,0,78.6,90a1.75,1.75,0,0,1,0-.4.19.19,0,0,1,0-.07.11.11,0,0,1,.07,0,2.29,2.29,0,0,1,1.1.08,3.7,3.7,0,0,1,1.88,1,.37.37,0,0,1,.09.16.3.3,0,0,1,0,.16c-.3.75-1.4.79-2.08.78s-1.51-.15-2.27-.12a6.45,6.45,0,0,1-2.48,0,.81.81,0,0,1-.33-.21,1.16,1.16,0,0,1,.06-1.2.2.2,0,0,1,.09-.09.2.2,0,0,1,.15,0c.38.14.67.46,1,.61A1.91,1.91,0,0,0,76.61,90.77Z" transform="translate(-9.29 -10.48)" fill="#473f47"></path><path d="M70.23,61.85s-3.5,1.67-2.81,5.25c.59,3.13,2.81,5.21,4.12,7.94.73,1.51.4,3.87.63,5.59.17,1.27.4,2.53.68,3.77.15.63.31,1.26.49,1.89a4.29,4.29,0,0,0,.22.72c.14.26.35.44.37.76a2.53,2.53,0,0,0,0,.55c.06.22.27.38.39.58a.48.48,0,0,0,.09.11.27.27,0,0,0,.12,0,3.56,3.56,0,0,0,1.26-.13c.24-.07.51-.2.57-.45a.78.78,0,0,0,0-.4,25.27,25.27,0,0,1-.75-4.24,40.25,40.25,0,0,1-.11-4.53c0-1.86.7-3.79.3-5.63-.31-1.45-2.23-9.27-2.23-9.27Z" transform="translate(-9.29 -10.48)" fill="#473f47"></path><path d="M72.89,90.34a1.59,1.59,0,0,1,.49.11.45.45,0,0,1,.27.38.5.5,0,0,1-.28.38c-.14.08-.3.12-.45.21a3,3,0,0,1-.38.23,1.16,1.16,0,0,1-.71-.07,9.14,9.14,0,0,0-3.24-.41,1.13,1.13,0,0,1-.32,0,1,1,0,0,1-.61-.69,4.52,4.52,0,0,1-.06-2.07.44.44,0,0,1,.07-.22.42.42,0,0,1,.17-.11c1.06-.45,1.56.61,2.29,1.15A5.78,5.78,0,0,0,72.89,90.34Z" transform="translate(-9.29 -10.48)" fill="#ffbaa8"></path><path d="M70.47,64.25a4.24,4.24,0,0,0-2.43,1c-1.5,1.08-1.58,3.53-1.23,5.34.18,1,1.45,4,1.61,4.85.29,1.62-.68,3.52-.87,5.11-.3,2.53-.18,5.08-.45,7.6a.87.87,0,0,0,0,.23.62.62,0,0,0,.34.42,1.34,1.34,0,0,0,.55.13,11.83,11.83,0,0,0,1.19,0c.11,0,.25,0,.32-.09a.44.44,0,0,0,.07-.3,21.91,21.91,0,0,1,.52-4.09,39.1,39.1,0,0,1,1-4.41c.51-1.79,1.62-3.5,1.7-5.38.06-1.53.12-3.06.19-4.59.07-1.7.44-3.4,0-5.08a1,1,0,0,0-.26-.53.92.92,0,0,0-.48-.16,9.62,9.62,0,0,0-1.52-.08Z" transform="translate(-9.29 -10.48)" fill="#473f47"></path><path d="M71.87,47.22c.16.19.44.27.56.49s0,.59,0,.88,0,.85,0,1.27a.56.56,0,0,1-.1.24.51.51,0,0,1-.2.12,2.9,2.9,0,0,1-.87.2c-.06,0-.13,0-.17.06a.22.22,0,0,0,0,.16,4.83,4.83,0,0,0,.42,2.25c.11.23.23.51.08.72a.45.45,0,0,1-.21.15,1.62,1.62,0,0,1-1.6-.45,6.14,6.14,0,0,1-1.09-1.13,1.22,1.22,0,0,1-.22-.38,1.37,1.37,0,0,1,0-.57,9.58,9.58,0,0,0,0-1.93,7.24,7.24,0,0,1-.12-2.45,1.3,1.3,0,0,1,.38-.72,1.66,1.66,0,0,1,.85-.29,2.33,2.33,0,0,1,1.73.25C71.28,46.2,71.67,47,71.87,47.22Z" transform="translate(-9.29 -10.48)" fill="#ffbaa8"></path><path d="M69.64,51c5-.56,3.94,8.9,3.74,11.77,0,.74.54,1.44.25,2.18s-1,.83-1.62,1l-2.52.54a2.23,2.23,0,0,1-1.67-.09,2.21,2.21,0,0,1-.68-1.92c0-1.84.21-4-.42-5.79a5.24,5.24,0,0,1-.22-3.14,12.43,12.43,0,0,1,.76-2.68c.17-.37.37-.73.57-1.08a1.5,1.5,0,0,1,.9-.56A4.78,4.78,0,0,1,69.64,51Z" transform="translate(-9.29 -10.48)" fill="#fff"></path><path d="M68.65,53.65A3.13,3.13,0,0,0,67.91,56c.13.46.45.83.59,1.27A2.6,2.6,0,0,1,68.36,59a1.91,1.91,0,0,1-.72,1,2.27,2.27,0,0,1-1.39.18.64.64,0,0,1-.4-.15c0-.06-.07-.16-.13-.22a.45.45,0,0,0-.51-.1c-.17.06-.32.17-.5.22a1.63,1.63,0,0,1-1.37-.52,6,6,0,0,1-1.23-1.23,2.17,2.17,0,0,1-.4-1.66c.17-.72.82-1.3.82-2,0-.37-.16-.73-.13-1.1a2,2,0,0,1,.42-1A14,14,0,0,1,64,50.87a.78.78,0,0,0,.21-.3.82.82,0,0,0,0-.49,2.75,2.75,0,0,1-.15-1.84,2.61,2.61,0,0,1,1-1,.53.53,0,0,0,.22-.25.66.66,0,0,0,0-.28,2.25,2.25,0,0,1,.12-1.36,2.12,2.12,0,0,1,1.66-1.07,6.71,6.71,0,0,1,1.61.1c.33,0,.66,0,1,0A1.42,1.42,0,0,1,71,45.62a1.66,1.66,0,0,1-.35,1.13c-.24.32-.57.57-.82.88a1.17,1.17,0,0,0-.29,1.1.54.54,0,0,0-.61.32.42.42,0,0,0,.15.43.52.52,0,0,0,.45.11,1.67,1.67,0,0,0-.65.74,5.51,5.51,0,0,0-.26,1.27,4.69,4.69,0,0,1-.34.8,3.93,3.93,0,0,0-.06,1.53,3.92,3.92,0,0,1-.55,2.32,2.48,2.48,0,0,1-2,1.17,1.83,1.83,0,0,1-1.8-1.33,1,1,0,0,1-.83-.55,2.34,2.34,0,0,1-.24-1,2.64,2.64,0,0,1,.12-1.12A3.84,3.84,0,0,1,64.31,52a5.6,5.6,0,0,0,.69-.6.94.94,0,0,0,.23-.32,1.14,1.14,0,0,0-.16-.79A1.64,1.64,0,0,1,65,49a2.18,2.18,0,0,1,.88-.82l.88-.56a.52.52,0,0,0,.19-.17.72.72,0,0,0,0-.21,9.88,9.88,0,0,1,.13-1.44,2,2,0,0,1,2-1.45" transform="translate(-9.29 -10.48)" fill="#ff681c"></path><path d="M69.29,90.8h.19a8.62,8.62,0,0,0,1.34-.17.56.56,0,0,0,.24-.1.41.41,0,0,0,.09-.34,2.31,2.31,0,0,1,0-.37.19.19,0,0,1,0-.07l.07,0a2.1,2.1,0,0,1,1,.12,3.37,3.37,0,0,1,1.7,1A.36.36,0,0,1,74,91a.42.42,0,0,1,0,.15c-.3.68-1.32.68-2,.65s-1.4-.2-2.1-.2a5.91,5.91,0,0,1-2.3-.12.88.88,0,0,1-.3-.2,1.09,1.09,0,0,1,.1-1.11s0-.07.09-.08a.18.18,0,0,1,.14,0c.34.14.6.45.94.59A1.67,1.67,0,0,0,69.29,90.8Z" transform="translate(-9.29 -10.48)" fill="#473f47"></path><path d="M73.21,52.11a2.8,2.8,0,0,0,1,.07,2.46,2.46,0,0,0,.69-.24A23.82,23.82,0,0,0,78,50.21l1.37,1.58a27.9,27.9,0,0,1-3.81,3.64,2.71,2.71,0,0,1-.83.5,2.76,2.76,0,0,1-1.18,0,12,12,0,0,1-2.3-.55,2.65,2.65,0,0,1-1.29-.79,2.85,2.85,0,0,1-.41-1.58,2.05,2.05,0,0,1,.11-.92c.25-.57.81-.56,1.33-.46Z" transform="translate(-9.29 -10.48)" fill="#fff"></path><path d="M95,26.73c-1.47.21-5,8.46-3.93,10.34s6.81,4.09,6.81,4.09l-.31-3.25s-4-1.68-3.64-2.72a50.92,50.92,0,0,1,2.59-5Z" transform="translate(-9.29 -10.48)" fill="#fff"></path><path d="M104.86,26.73c1.47.21,5,8.46,3.94,10.34S102,41.16,102,41.16l.32-3.25s4-1.68,3.63-2.72a49.1,49.1,0,0,0-2.58-5Z" transform="translate(-9.29 -10.48)" fill="#fff"></path><path d="M95.94,26.49H104a2.1,2.1,0,0,1,2.15,2.13s-1.54,6.28-1.56,8.38c0,1.16.37,4.6.37,4.6H95s.46-3.6.45-4.81c0-2-1.64-8.17-1.64-8.17A2.1,2.1,0,0,1,95.94,26.49Z" transform="translate(-9.29 -10.48)" fill="#fff"></path><path d="M101,28.07a.94.94,0,0,1-1,.8,1,1,0,0,1-1.06-.8V24.15H101Z" transform="translate(-9.29 -10.48)" fill="#fda79b"></path><path d="M101.2,25.13c0,1.25-1.52,2.09-2.61,2.06a1.48,1.48,0,0,1-1.25-.66c-.16-.26-.21-.58-.39-.83a3,3,0,0,1-.28-.33,1.78,1.78,0,0,1-.2-.69,12.71,12.71,0,0,0-.42-1.23,2.61,2.61,0,0,1,.89-2.84c.86-.68,2-.89,2.6.14A6.5,6.5,0,0,1,101.2,25.13Z" transform="translate(-9.29 -10.48)" fill="#fda79b"></path><rect x="83.93" y="23.93" width="13.5" height="8.05" fill="#68e1fd"></rect><g opacity="0.1"><rect x="83.93" y="23.93" width="13.5" height="8.05" fill="#020202"></rect></g><path d="M99.07,46.75a3.43,3.43,0,0,1-.94.53c-.72.3-2.15.87-1.94,1.49.29.84,1.3.78,2,.58a13.14,13.14,0,0,0,3-1.46Z" transform="translate(-9.29 -10.48)" fill="#473f47"></path><path d="M100.8,44.56c2.45-1.78,3.74-3.11,6.49-4.78a2.08,2.08,0,0,1,2.24-.07c1,.38.86,2,.33,2.74-1.58,2.08-7.68,4.95-8.92,5.39-.53.18-2.41-1.4-1.64-2.16A14.89,14.89,0,0,1,100.8,44.56Z" transform="translate(-9.29 -10.48)" fill="#473f47"></path><path d="M99.67,48a8.23,8.23,0,0,0,1.3,1.33c.83.64,1.4.85,2.07.54,1-.45.08-1.42-.68-2.17a10.52,10.52,0,0,0-1.93-1.6Z" transform="translate(-9.29 -10.48)" fill="#473f47"></path><path d="M99.8,45.66l1,.87a2.37,2.37,0,0,1,.55.63c.34.64-.84,1.93-1.6,1.17s-1.45-1.58-1.45-1.58Z" transform="translate(-9.29 -10.48)" fill="#f6965c"></path><path d="M96.68,47c-2.85-1.44-4.59-2-6.43-4.53a3.1,3.1,0,0,1-.47-2.28c.23-.67,1.19-1.06,2.33-.79,1,.23,7.35,5.24,8.35,6.19.43.4-.88,2.44-2,2.09A11,11,0,0,1,96.68,47Z" transform="translate(-9.29 -10.48)" fill="#473f47"></path><path d="M95.57,22a1.12,1.12,0,0,0,.54.25,4,4,0,0,0,2.17-.07.65.65,0,0,1,.56,0,.53.53,0,0,1,.17.24l.85,1.76c.19-.25.53-.53.79-.34a.62.62,0,0,1,.16.5l0,1.56a11.59,11.59,0,0,0,1.06-2.58,3.69,3.69,0,0,0,.25-1.22,1.28,1.28,0,0,0-.51-1.08c-.13-.09-.3-.15-.39-.29a1.18,1.18,0,0,1-.14-.37A2,2,0,0,0,99.9,19a4.3,4.3,0,0,0-1.82-.24,3.52,3.52,0,0,0-1.57.37C95.82,19.53,94.83,21.28,95.57,22Z" transform="translate(-9.29 -10.48)" fill="#473f47"></path><path d="M80,50.56a3.25,3.25,0,0,0,1.16-.88,1.11,1.11,0,0,0,0-1.36.23.23,0,0,0-.12-.08.35.35,0,0,0-.26,0l-.63.27a.55.55,0,0,1-.22.06.27.27,0,0,1-.22-.37c-.34.11-.5.5-.61.84a1.42,1.42,0,0,1-.52.91c-.1.06-.21.09-.31.15a.29.29,0,0,0-.15.27.35.35,0,0,0,.07.15C78.8,51.45,79.23,51,80,50.56Z" transform="translate(-9.29 -10.48)" fill="#ffbaa8"></path><rect x="21.29" y="104" width="110.37" height="7.52" rx="3.2" fill="#fff"></rect></svg>